inDegrees=yes
name=ik_coleta1_trike_filtrado_mov
DataType=double
version=3
OpenSimVersion=4.4-2022-07-23-0e9fedc
endheader
time	pelvis_tilt	pelvis_tx	pelvis_ty	hip_flexion_r	knee_angle_r	ankle_angle_r	hip_flexion_l	knee_angle_l	ankle_angle_l	lumbar_extension	gearToGround_coord_0	rightPedalToGear_coord_0	leftPedalToGear_coord_0
20.00052404403687	52.5	-0.7	0.0500000000000003	61.06033355063189	-62.45336737004152	-1.039076492892845e-12	80.38799999999991	-84.66000000000004	5.05043721578303e-13	2.071017320375504e-12	0	-114.0000000000003	-139.067795130823
20.00452995300293	52.5	-0.7	0.0500000000000003	61.26060013456094	-63.20446407964004	-1.039076492892845e-12	80.38799999999991	-84.66000000000004	5.05043721578303e-13	2.071017320375504e-12	0	-114.0000000000003	-139.067795130823
20.00951385498047	52.5	-0.7	0.0500000000000003	61.47842169556472	-63.9744112555163	-1.039076492892845e-12	80.38799999999991	-84.66000000000004	5.05043721578303e-13	2.071017320375504e-12	0	-114.0000000000003	-139.067795130823
20.0185227394104	52.5	-0.7	0.0500000000000003	61.71051681046686	-64.74187961605226	-1.039076492892845e-12	80.38799999999991	-84.66000000000004	5.05043721578303e-13	2.071017320375504e-12	0	-114.0000000000003	-139.067795130823
20.023521900177	52.5	-0.7	0.0500000000000003	61.95776044083799	-65.50908294551878	-1.039076492892845e-12	80.38799999999991	-84.66000000000004	5.05043721578303e-13	2.071017320375504e-12	0	-114.0000000000003	-139.067795130823
20.02852702140808	52.5	-0.7	0.0500000000000003	62.22006811785972	-66.27681744433207	-1.039076492892845e-12	80.38799999999991	-84.66000000000004	5.05043721578303e-13	2.071017320375504e-12	0	-114.0000000000003	-139.067795130823
20.03252601623535	52.5	-0.7	0.0500000000000003	62.49764848476512	-67.04354513325455	-1.039076492892845e-12	80.38799999999991	-84.66000000000004	5.05043721578303e-13	2.071017320375504e-12	0	-114.0000000000003	-139.067795130823
20.03752088546753	52.5	-0.7	0.0500000000000003	62.79105127054245	-67.80793801546446	-1.039076492892845e-12	80.38799999999991	-84.66000000000004	5.05043721578303e-13	2.071017320375504e-12	0	-114.0000000000003	-139.067795130823
20.04153895378113	52.5	-0.7	0.0500000000000003	63.1000521575837	-68.56906618258519	-1.039076492892845e-12	80.38799999999991	-84.66000000000004	5.05043721578303e-13	2.071017320375504e-12	0	-114.0000000000003	-139.067795130823
20.05553412437439	52.5	-0.7	0.0500000000000003	63.4167932488515	-69.3282688995556	-1.039076492892845e-12	80.38799999999991	-84.66000000000004	5.05043721578303e-13	2.071017320375504e-12	0	-114.0000000000003	-139.067795130823
20.06252217292786	52.5	-0.7	0.0500000000000003	63.7515423302559	-70.07971171236372	-1.039076492892845e-12	80.38799999999991	-84.66000000000004	5.05043721578303e-13	2.071017320375504e-12	0	-114.0000000000003	-139.067795130823
20.06953597068787	52.5	-0.7	0.0500000000000003	64.09965719907777	-70.82290297087972	-1.039076492892845e-12	80.38799999999991	-84.66000000000004	5.05043721578303e-13	2.071017320375504e-12	0	-114.0000000000003	-139.067795130823
20.07552313804626	52.5	-0.7	0.0500000000000003	64.46309776103816	-71.55275409951443	-1.039076492892845e-12	80.38799999999991	-84.66000000000004	5.05043721578303e-13	2.071017320375504e-12	0	-114.0000000000003	-139.067795130823
20.07952094078064	52.5	-0.7	0.0500000000000003	64.83232563138151	-72.2762683594119	-1.039076492892845e-12	80.38799999999991	-84.66000000000004	5.05043721578303e-13	2.071017320375504e-12	0	-114.0000000000003	-139.067795130823
20.08552384376526	52.5	-0.7	0.0500000000000003	65.21430647962613	-72.98158413544134	-1.039076492892845e-12	80.38799999999991	-84.66000000000004	5.05043721578303e-13	2.071017320375504e-12	0	-114.0000000000003	-139.067795130823
20.10352993011475	52.5	-0.7	0.0500000000000003	65.60812743353102	-73.67997349242943	-1.039076492892845e-12	80.38799999999991	-84.66000000000004	5.05043721578303e-13	2.071017320375504e-12	0	-114.0000000000003	-139.067795130823
20.11452889442444	52.5	-0.7	0.0500000000000003	66.00871999997455	-74.35608810799729	-1.039076492892845e-12	80.38799999999991	-84.66000000000004	5.05043721578303e-13	2.071017320375504e-12	0	-114.0000000000003	-139.067795130823
20.12051510810852	52.5	-0.7	0.0500000000000003	66.4191589560721	-75.01583660071115	-1.039076492892845e-12	80.38799999999991	-84.66000000000004	5.05043721578303e-13	2.071017320375504e-12	0	-114.0000000000003	-139.067795130823
20.13452005386353	52.5	-0.7	0.0500000000000003	66.83614371919454	-75.65465707339359	-1.039076492892845e-12	80.38799999999991	-84.66000000000004	5.05043721578303e-13	2.071017320375504e-12	0	-114.0000000000003	-139.067795130823
20.14352989196777	52.5	-0.7	0.0500000000000003	67.26106976154198	-76.27415338551145	-1.039076492892845e-12	80.38799999999991	-84.66000000000004	5.05043721578303e-13	2.071017320375504e-12	0	-114.0000000000003	-139.067795130823
20.15252614021301	52.5	-0.7	0.0500000000000003	67.69146692364556	-76.87061166255953	-1.039076492892845e-12	80.38799999999991	-84.66000000000004	5.05043721578303e-13	2.071017320375504e-12	0	-114.0000000000003	-139.067795130823
20.15756106376648	52.5	-0.7	0.0500000000000003	68.12916925308132	-77.45030502853932	-1.039076492892845e-12	80.38799999999991	-84.66000000000004	5.05043721578303e-13	2.071017320375504e-12	0	-114.0000000000003	-139.067795130823
20.16252112388611	52.5	-0.7	0.0500000000000003	68.58241874126064	-78.00311306716067	-1.039076492892845e-12	80.38799999999991	-84.66000000000004	5.05043721578303e-13	2.071017320375504e-12	0	-114.0000000000003	-139.067795130823
20.16654491424561	52.5	-0.7	0.0500000000000003	69.03917181133846	-78.53561247848889	-1.039076492892845e-12	80.38799999999991	-84.66000000000004	5.05043721578303e-13	2.071017320375504e-12	0	-114.0000000000003	-139.067795130823
20.17152094841003	52.5	-0.7	0.0500000000000003	69.50386516857137	-79.04769294255215	-1.039076492892845e-12	80.38799999999991	-84.66000000000004	5.05043721578303e-13	2.071017320375504e-12	0	-114.0000000000003	-139.067795130823
20.17751979827881	52.5	-0.7	0.0500000000000003	69.98282148410078	-79.53612089118643	-1.039076492892845e-12	80.38799999999991	-84.66000000000004	5.05043721578303e-13	2.071017320375504e-12	0	-114.0000000000003	-139.067795130823
20.18151807785034	52.5	-0.7	0.0500000000000003	70.47171929330297	-80.0046875973447	-1.039076492892845e-12	80.38799999999991	-84.66000000000004	5.05043721578303e-13	2.071017320375504e-12	0	-114.0000000000003	-139.067795130823
20.19151473045349	52.5	-0.7	0.0500000000000003	70.96954134734528	-80.45067366640617	-1.039076492892845e-12	80.38799999999991	-84.66000000000004	5.05043721578303e-13	2.071017320375504e-12	0	-114.0000000000003	-139.067795130823
20.20051002502441	52.5	-0.7	0.0500000000000003	71.48734886557089	-80.88021834718481	-1.039076492892845e-12	80.38799999999991	-84.66000000000004	5.05043721578303e-13	2.071017320375504e-12	0	-114.0000000000003	-139.067795130823
20.20852494239807	52.5	-0.7	0.0500000000000003	72.01527170549085	-81.28804159658698	-1.039076492892845e-12	80.38799999999991	-84.66000000000004	5.05043721578303e-13	2.071017320375504e-12	0	-114.0000000000003	-139.067795130823
20.2145209312439	52.5	-0.7	0.0500000000000003	72.55574993447911	-81.67565076134308	-1.039076492892845e-12	80.38799999999991	-84.66000000000004	5.05043721578303e-13	2.071017320375504e-12	0	-114.0000000000003	-139.067795130823
20.22551703453064	52.5	-0.7	0.0500000000000003	73.10917658103635	-82.04274329850057	-1.039076492892845e-12	80.38799999999991	-84.66000000000004	5.05043721578303e-13	2.071017320375504e-12	0	-114.0000000000003	-139.067795130823
20.23151898384094	52.5	-0.7	0.0500000000000003	73.68777485709239	-82.3956053753511	-1.039076492892845e-12	80.38799999999991	-84.66000000000004	5.05043721578303e-13	2.071017320375504e-12	0	-114.0000000000003	-139.067795130823
20.23752188682556	52.5	-0.7	0.0500000000000003	74.27632286904677	-82.72739296880845	-1.039076492892845e-12	80.38799999999991	-84.66000000000004	5.05043721578303e-13	2.071017320375504e-12	0	-114.0000000000003	-139.067795130823
20.24151706695557	52.5	-0.7	0.0500000000000003	74.88080965972328	-83.04100263401375	-1.039076492892845e-12	80.38799999999991	-84.66000000000004	5.05043721578303e-13	2.071017320375504e-12	0	-114.0000000000003	-139.067795130823
